<?xml version="1.0" standalone="no"?>
<!DOCTYPE svg PUBLIC "-//W3C//DTD SVG 20010904//EN"
 "http://www.w3.org/TR/2001/REC-SVG-20010904/DTD/svg10.dtd">
<svg version="1.0" xmlns="http://www.w3.org/2000/svg"
 width="563.000000pt" height="789.000000pt" viewBox="0 0 563.000000 789.000000"
 preserveAspectRatio="xMidYMid meet">

<g transform="translate(0.000000,789.000000) scale(0.100000,-0.100000)"
fill="#000000" stroke="none">
<path d="M0 7472 l0 -419 47 -21 c68 -31 137 -45 188 -40 26 3 42 2 39 -4 -3
-5 6 -6 23 -2 81 18 103 26 98 34 -4 6 3 10 15 10 13 0 19 4 14 12 -5 7 -3 8
5 4 13 -8 46 17 62 46 7 12 5 27 -6 48 -17 32 -38 42 -29 13 5 -14 4 -15 -4
-4 -6 8 -8 30 -6 50 3 28 2 33 -7 21 -9 -13 -10 -12 -5 3 3 10 6 26 7 35 0 9
7 -4 15 -29 22 -74 64 -139 134 -210 52 -53 131 -109 153 -109 9 0 27 91 27
137 0 90 -38 191 -90 238 -28 25 -26 30 18 43 74 23 282 183 282 218 0 12
-102 64 -164 84 -22 7 -59 10 -90 6 -41 -4 -46 -3 -26 5 14 6 50 9 81 6 l56
-5 12 38 c6 21 8 46 5 56 -5 16 -4 17 6 4 9 -12 11 -1 6 50 -6 79 -15 108 -27
88 -7 -10 -9 -10 -9 0 0 9 -90 12 -415 12 l-415 0 0 -418z m847 356 c-3 -7 -5
-2 -5 12 0 14 2 19 5 13 2 -7 2 -19 0 -25z m-257 -209 c0 -6 8 -9 18 -6 53 17
62 16 24 -2 -55 -26 -128 -86 -156 -127 -22 -33 -22 -33 -36 -11 -12 20 -12
21 3 8 16 -12 21 -9 18 12 0 4 4 7 10 7 6 0 9 7 6 14 -4 10 -1 13 9 9 11 -4
14 0 10 19 -3 17 1 25 10 25 10 0 11 -4 3 -14 -23 -26 8 -12 44 21 34 31 36
35 20 45 -17 10 -17 10 0 11 9 0 17 -5 17 -11z m-30 -13 c0 -2 -8 -10 -17 -17
-16 -13 -17 -12 -4 4 13 16 21 21 21 13z m-124 -259 c0 -48 -2 -62 -7 -42 -12
54 -10 115 5 115 1 0 1 -33 2 -73z m37 -234 c-5 -11 -3 -14 6 -8 10 6 11 3 2
-14 -16 -28 -20 -26 -17 7 4 31 4 32 11 32 2 0 1 -7 -2 -17z m-26 -32 c0 -11
-7 -17 -14 -14 -9 4 -9 8 0 19 16 17 16 17 14 -5z"/>
<path d="M2875 7818 c14 -144 59 -306 84 -301 6 2 10 -7 8 -20 -1 -14 3 -21
11 -19 8 1 10 -2 7 -8 -11 -18 54 -109 128 -179 76 -71 214 -159 151 -97 -8 9
-11 16 -4 16 6 0 16 -11 22 -25 7 -15 17 -24 25 -21 8 3 11 1 8 -4 -3 -6 1
-10 9 -10 9 0 16 -4 16 -9 0 -11 100 -52 240 -98 103 -34 215 -65 207 -56 -3
2 1 25 9 50 15 51 11 67 -17 60 -11 -3 -17 -1 -14 3 5 8 -97 36 -123 33 -7 0
-11 2 -7 5 8 8 -107 42 -125 37 -8 -2 -22 0 -30 6 -12 8 -9 9 10 5 14 -3 5 3
-18 14 -24 11 -49 17 -55 13 -6 -4 -7 -1 -2 7 6 10 4 12 -9 7 -11 -5 -15 -3
-10 5 5 8 1 9 -12 4 -10 -4 -15 -4 -11 0 10 10 -70 54 -86 48 -7 -2 -22 6 -33
18 l-19 23 23 -19 c12 -11 24 -17 27 -14 9 8 -87 78 -98 71 -5 -3 -7 -1 -4 4
4 6 -1 17 -10 24 -24 20 -87 108 -111 154 -37 74 -63 170 -69 258 l-6 87 -59
0 -60 0 7 -72z m22 -30 c-3 -8 -6 -5 -6 6 -1 11 2 17 5 13 3 -3 4 -12 1 -19z
m20 -50 c-3 -7 -5 -2 -5 12 0 14 2 19 5 13 2 -7 2 -19 0 -25z m70 -10 c-3 -7
-5 -2 -5 12 0 14 2 19 5 13 2 -7 2 -19 0 -25z m-80 -30 c-3 -8 -6 -5 -6 6 -1
11 2 17 5 13 3 -3 4 -12 1 -19z m97 -53 c5 -22 4 -26 -4 -15 -5 8 -10 24 -10
34 0 26 6 18 14 -19z m-77 -27 c-3 -8 -6 -5 -6 6 -1 11 2 17 5 13 3 -3 4 -12
1 -19z m118 -64 c8 -20 15 -39 15 -42 0 -12 -27 33 -34 56 -12 35 2 26 19 -14z
m-98 4 c-3 -8 -6 -5 -6 6 -1 11 2 17 5 13 3 -3 4 -12 1 -19z m33 14 c0 -5 -7
-17 -15 -28 -14 -18 -14 -17 -4 9 12 27 19 34 19 19z m60 -73 c0 -13 -29 -18
-36 -7 -4 7 -3 8 4 4 8 -5 12 1 12 16 0 18 2 20 10 8 5 -8 10 -18 10 -21z m66
-56 c-3 -4 -6 -1 -6 6 0 7 -4 9 -10 6 -11 -7 -14 8 -3 19 4 3 11 -1 16 -9 5
-9 6 -19 3 -22z m-81 -4 c4 -11 4 -23 1 -26 -3 -4 -6 1 -6 10 0 10 -4 17 -10
17 -5 0 -10 5 -10 10 0 18 19 10 25 -11z m36 -10 c-5 -13 -10 -19 -10 -12 -1
15 10 45 15 40 3 -2 0 -15 -5 -28z m78 -22 c0 -9 -2 -8 -6 1 -2 6 -10 9 -15 6
-7 -4 -8 -2 -4 5 9 13 26 5 25 -12z m-89 -19 c0 -9 4 -8 10 2 8 13 10 12 10
-2 0 -22 -13 -23 -30 -3 -9 10 -9 15 -1 15 6 0 11 -6 11 -12z m115 3 c3 -5 2
-12 -3 -15 -5 -3 -9 1 -9 9 0 17 3 19 12 6z m64 -57 c6 -5 4 -13 -3 -20 -9 -8
-16 -5 -28 11 -15 20 -15 21 3 20 11 -1 23 -6 28 -11z m-112 -11 c-4 -3 -1
-13 6 -22 11 -14 10 -14 -5 -2 -16 12 -16 31 -1 31 4 0 3 -3 0 -7z m78 -73
c10 -11 16 -20 13 -20 -3 0 -13 9 -23 20 -10 11 -16 20 -13 20 3 0 13 -9 23
-20z m525 -152 c0 -11 -12 -10 -30 2 -12 7 -10 9 8 7 12 0 22 -5 22 -9z m-125
-8 c3 -5 2 -10 -4 -10 -5 0 -13 5 -16 10 -3 6 -2 10 4 10 5 0 13 -4 16 -10z
m-25 -20 c0 -5 -5 -10 -11 -10 -5 0 -7 5 -4 10 3 6 8 10 11 10 2 0 4 -4 4 -10z
m177 -22 c-3 -8 -6 -5 -6 6 -1 11 2 17 5 13 3 -3 4 -12 1 -19z m-92 2 c3 -5 2
-10 -4 -10 -5 0 -13 5 -16 10 -3 6 -2 10 4 10 5 0 13 -4 16 -10z m85 -30 c0
-5 -4 -10 -10 -10 -5 0 -10 5 -10 10 0 6 5 10 10 10 6 0 10 -4 10 -10z m25
-10 c3 -5 1 -10 -4 -10 -6 0 -11 5 -11 10 0 6 2 10 4 10 3 0 8 -4 11 -10z"/>
<path d="M5045 7660 c-60 -12 -160 -47 -230 -81 -73 -36 -161 -101 -157 -118
1 -6 -3 -10 -8 -9 -23 6 -140 -180 -181 -287 -70 -184 -64 -459 13 -568 11
-16 26 -26 33 -23 14 5 206 144 215 155 3 4 24 21 47 39 39 31 45 32 80 23 56
-16 182 -13 243 5 81 24 126 59 156 120 31 64 30 138 -3 182 l-20 27 39 47
c39 45 40 49 49 155 10 116 7 141 -22 209 -49 109 -129 149 -254 124z"/>
<path d="M1653 7544 c-13 -3 -23 -10 -23 -15 0 -6 -5 -7 -11 -3 -20 12 6 -65
104 -313 l20 -52 -30 -68 c-78 -175 -64 -323 39 -405 35 -27 49 -32 97 -32 31
-1 70 3 86 8 17 5 27 5 23 1 -9 -10 45 -89 74 -110 13 -8 34 -15 48 -15 14 0
35 -6 46 -14 11 -8 45 -22 76 -30 50 -15 63 -15 127 -2 88 18 122 42 153 104
21 42 23 61 23 182 0 225 -40 337 -174 482 -18 21 -38 35 -42 32 -5 -3 -7 1
-4 8 13 35 -191 166 -332 213 -77 26 -242 42 -300 29z"/>
<path d="M5606 7278 c-52 -80 -61 -118 -61 -258 1 -74 7 -161 14 -192 7 -32
11 -61 9 -65 -2 -4 -15 -6 -29 -4 -48 4 -185 -19 -276 -48 -122 -38 -273 -104
-273 -118 0 -13 105 -145 147 -184 45 -42 153 -114 222 -149 66 -33 194 -70
243 -70 l28 0 0 535 c-1 372 -4 534 -11 529 -7 -4 -6 2 1 16 16 30 5 37 -14 8z
m4 -48 c0 -5 -2 -10 -4 -10 -3 0 -8 5 -11 10 -3 6 -1 10 4 10 6 0 11 -4 11
-10z"/>
<path d="M546 6519 c3 -5 0 -9 -7 -9 -7 0 -10 -3 -6 -6 3 -3 -3 -15 -14 -27
-26 -28 -24 -44 7 -51 15 -4 24 -9 22 -12 -3 -2 -17 0 -31 5 -22 9 -28 7 -37
-9 -5 -10 -7 -26 -3 -36 4 -10 2 -15 -4 -11 -8 5 -76 -96 -92 -137 -13 -32
-176 -216 -192 -216 -5 0 -9 -5 -9 -12 0 -9 3 -9 12 0 7 7 16 12 21 12 5 0 -6
-12 -25 -27 -18 -15 -36 -32 -40 -38 -5 -6 -8 -6 -8 2 0 7 9 17 21 23 11 7 19
14 16 16 -9 10 -96 -51 -92 -64 3 -7 1 -11 -4 -8 -4 3 -24 1 -45 -5 l-37 -10
2 -60 c1 -35 6 -59 13 -59 19 0 134 58 183 91 59 41 193 168 193 183 -1 6 -12
-2 -26 -19 -15 -16 -23 -24 -18 -16 4 8 8 34 10 58 2 40 -4 49 -30 44 -5 -1
-3 6 4 16 22 28 24 29 17 11 -7 -19 12 -29 42 -23 15 3 18 0 14 -13 -6 -15 -5
-15 10 -3 9 7 14 18 10 24 -4 6 -1 7 6 3 9 -6 8 -13 -5 -27 -9 -11 -15 -22
-12 -25 3 -3 29 29 57 72 37 55 50 83 46 98 -5 15 -4 17 3 7 8 -11 15 -4 31
29 11 23 18 47 14 53 -4 6 -1 7 7 2 9 -6 10 -1 5 16 -4 16 -3 19 3 11 7 -11
11 -11 19 0 12 17 36 75 33 84 -1 4 3 10 9 13 6 4 -14 19 -44 33 -30 14 -52
22 -49 17z m30 -30 c3 -6 1 -16 -5 -22 -9 -9 -10 -7 -5 7 5 13 4 17 -4 12 -7
-4 -12 -2 -12 3 0 14 17 14 26 0z m44 -49 c0 -5 -5 -10 -11 -10 -5 0 -7 5 -4
10 3 6 8 10 11 10 2 0 4 -4 4 -10z m-125 -40 c-4 -6 -2 -17 5 -25 8 -10 8 -15
-2 -21 -7 -4 -10 -4 -6 1 4 4 3 14 -3 21 -10 12 -5 34 7 34 3 0 2 -5 -1 -10z
m-35 -87 c0 -5 -5 -15 -10 -23 -8 -12 -10 -11 -10 8 0 12 5 22 10 22 6 0 10
-3 10 -7z m80 -24 c0 -5 -4 -9 -10 -9 -5 0 -10 7 -10 16 0 8 5 12 10 9 6 -3
10 -10 10 -16z m-147 -110 c-6 -6 -19 -9 -29 -6 -16 4 -15 5 4 6 12 0 22 6 22
13 0 6 3 8 7 5 4 -4 2 -12 -4 -18z m77 -14 c0 -5 -5 -3 -10 5 -5 8 -10 20 -10
25 0 6 5 3 10 -5 5 -8 10 -19 10 -25z m-133 -77 c-3 -8 -6 -5 -6 6 -1 11 2 17
5 13 3 -3 4 -12 1 -19z m-22 -28 c-3 -6 -12 -10 -18 -10 -7 0 -6 4 3 11 11 8
12 12 2 16 -6 2 -9 9 -6 15 4 7 10 4 16 -6 5 -9 6 -21 3 -26z m-25 -93 c0 -2
-10 -12 -22 -23 l-23 -19 19 23 c18 21 26 27 26 19z m-114 -35 c-18 -16 -18
-16 -6 6 6 13 14 21 18 18 3 -4 -2 -14 -12 -24z m-49 2 c-3 -3 -12 -4 -19 -1
-8 3 -5 6 6 6 11 1 17 -2 13 -5z m73 -14 c-6 -11 -13 -20 -16 -20 -2 0 0 9 6
20 6 11 13 20 16 20 2 0 0 -9 -6 -20z m40 7 c0 -2 -14 -16 -32 -33 l-32 -29
25 32 c20 27 39 41 39 30z m-80 -67 c-8 -5 -19 -10 -25 -10 -5 0 -3 5 5 10 8
5 20 10 25 10 6 0 3 -5 -5 -10z"/>
<path d="M3348 6423 c-13 -3 -18 -15 -18 -43 0 -63 6 -70 64 -70 65 0 167 -36
240 -85 l57 -38 35 34 c19 18 34 36 34 40 0 5 -29 28 -64 53 -71 51 -166 91
-241 101 -28 3 -59 7 -70 9 -11 2 -28 1 -37 -1z"/>
<path d="M374 6109 c-12 -19 -13 -62 -1 -50 5 5 16 7 23 4 17 -6 17 5 0 36
-10 19 -15 21 -22 10z"/>
<path d="M2758 6033 c-74 -59 -153 -141 -189 -197 -42 -64 -79 -168 -79 -222
0 -42 -9 -43 -37 -2 -36 51 -149 143 -223 183 -108 56 -203 77 -355 78 -91 0
-156 -5 -215 -18 -47 -10 -86 -19 -88 -21 -6 -4 80 -167 136 -258 36 -58 85
-120 139 -172 79 -77 81 -81 60 -91 -36 -17 -168 -144 -160 -155 3 -6 1 -8 -4
-5 -12 7 -96 -115 -96 -139 0 -8 -4 -14 -8 -14 -19 0 -31 -100 -20 -172 20
-127 54 -258 97 -377 12 -32 19 -40 26 -30 7 10 8 9 5 -6 -4 -22 16 -69 41
-97 24 -28 34 -21 16 10 -16 27 -16 27 9 -2 14 -17 24 -33 21 -37 -2 -4 3 -14
11 -22 8 -9 15 -19 15 -24 -1 -4 -12 5 -25 22 -13 16 -27 27 -30 24 -7 -8 123
-144 136 -141 6 1 8 -2 5 -6 -10 -17 191 -143 244 -154 8 -2 18 -7 21 -11 9
-12 338 -124 454 -154 127 -33 301 -38 329 -10 28 28 53 38 53 22 0 -7 -6 -11
-13 -8 -6 2 -15 0 -19 -6 -8 -14 29 -14 79 0 48 13 83 50 92 96 4 23 19 44 45
65 21 17 37 36 36 42 -1 6 4 10 12 8 20 -4 93 69 86 87 -5 11 -3 12 10 1 13
-11 14 -10 9 4 -4 11 -2 15 8 11 14 -6 65 52 60 68 -1 5 2 6 7 2 6 -3 29 23
52 57 46 69 120 205 95 174 -9 -11 -16 -16 -16 -12 0 5 11 21 25 38 13 16 29
47 35 69 13 46 6 45 114 15 74 -20 201 -36 284 -36 81 0 273 30 266 41 -3 5 8
9 25 9 52 0 190 56 313 127 13 7 -16 44 -30 38 -20 -8 -3 14 21 27 19 10 20 9
10 -4 -16 -19 7 -56 27 -43 10 6 9 9 -1 17 -11 8 -11 9 1 5 23 -7 52 12 46 29
-3 8 -1 12 4 9 15 -9 52 15 46 30 -3 10 0 12 11 8 12 -5 15 -2 10 9 -3 10 3
23 16 35 l22 18 -20 -25 -20 -25 23 19 c12 11 20 26 17 33 -2 8 -1 12 4 9 11
-7 29 15 69 82 33 53 38 67 24 58 -7 -4 -8 25 -3 57 1 11 21 -2 21 -14 0 -6
-4 -7 -10 -4 -5 3 -10 2 -10 -4 0 -5 4 -12 10 -16 14 -9 50 119 60 217 11 107
-1 264 -30 403 -11 55 -23 115 -27 133 -3 17 -9 32 -14 32 -5 0 -6 7 -3 15 4
10 0 15 -11 15 -9 0 -13 -4 -10 -10 3 -5 1 -10 -5 -10 -6 0 -8 -4 -5 -10 3 -6
-1 -7 -10 -3 -13 5 -14 7 -3 14 18 12 -3 11 -39 -2 l-31 -10 24 -92 c40 -160
57 -309 51 -444 -3 -67 -11 -131 -17 -142 -8 -16 -8 -27 1 -43 11 -21 11 -22
-4 -9 -15 12 -17 11 -17 -4 0 -16 -67 -115 -124 -182 -102 -120 -336 -234
-540 -262 -149 -21 -344 -5 -456 37 l-25 9 3 139 c3 102 -1 160 -13 219 -29
137 -75 252 -96 239 -5 -3 -6 3 -2 12 4 11 3 15 -5 10 -6 -3 -18 7 -28 24 -10
16 -22 30 -27 30 -4 0 -5 5 -1 11 3 6 14 -2 25 -20 10 -17 21 -31 24 -31 8 0
-1 16 -31 57 -13 17 -24 34 -24 38 0 15 -64 84 -73 78 -6 -3 -7 -2 -4 4 3 5
-13 28 -36 51 -32 31 -49 40 -69 38 -15 -2 -25 1 -22 6 3 5 13 7 21 3 13 -4
14 -3 3 10 -18 22 -120 67 -136 61 -8 -3 -13 -2 -10 3 9 14 -31 21 -140 28
l-100 6 -14 -73 c-8 -41 -16 -68 -18 -61 -2 7 1 32 7 56 15 58 -1 177 -33 253
-31 74 -94 182 -106 182 -5 0 -23 -12 -42 -27z m2097 -223 c3 -6 -1 -7 -9 -4
-18 7 -21 14 -7 14 6 0 13 -4 16 -10z m-1822 -127 c-7 -2 -21 -2 -30 0 -10 3
-4 5 12 5 17 0 24 -2 18 -5z m54 1 c-3 -3 -12 -4 -19 -1 -8 3 -5 6 6 6 11 1
17 -2 13 -5z m80 -10 c-3 -3 -12 -4 -19 -1 -8 3 -5 6 6 6 11 1 17 -2 13 -5z
m1730 -26 c-3 -7 -5 -2 -5 12 0 14 2 19 5 13 2 -7 2 -19 0 -25z m-1642 -6 c-3
-3 -11 0 -18 7 -9 10 -8 11 6 5 10 -3 15 -9 12 -12z m1702 -24 c-3 -7 -5 -2
-5 12 0 14 2 19 5 13 2 -7 2 -19 0 -25z m-1637 -8 c0 -5 -7 -7 -15 -4 -8 4
-15 8 -15 10 0 2 7 4 15 4 8 0 15 -4 15 -10z m-34 -15 c9 -8 11 -15 6 -15 -5
0 -15 7 -22 15 -7 8 -9 15 -6 15 4 0 14 -7 22 -15z m-362 -60 c-4 -8 -10 -15
-15 -15 -5 0 -9 -6 -9 -13 0 -7 -16 -28 -35 -47 -19 -18 -31 -38 -28 -43 3 -6
1 -7 -5 -3 -7 4 -29 -6 -49 -23 -21 -16 -57 -37 -80 -46 -24 -10 -41 -21 -38
-26 3 -4 11 -7 18 -5 7 1 8 1 4 -2 -4 -2 -2 -11 5 -20 7 -10 -1 -6 -17 8 -17
14 -31 25 -33 26 -1 0 24 13 55 29 86 42 157 98 189 149 28 44 50 62 38 31z
m514 -24 c2 -6 0 -11 -5 -10 -4 1 -10 0 -13 -1 -24 -9 -38 -6 -33 7 4 11 8 11
13 3 6 -9 9 -9 15 0 4 6 -1 18 -11 27 -17 14 -17 14 5 1 14 -8 27 -20 29 -27z
m74 -85 c6 -12 7 -18 3 -14 -5 4 -15 2 -24 -5 -14 -10 -14 -10 -4 4 10 12 9
20 -4 40 -16 23 -16 23 1 10 9 -8 22 -24 28 -35z m-623 6 c7 -14 6 -19 -3 -19
-6 0 -13 9 -13 19 -1 10 0 18 2 18 2 0 9 -8 14 -18z m589 -7 c-3 -3 -9 2 -12
12 -6 14 -5 15 5 6 7 -7 10 -15 7 -18z m-678 -50 c-7 -8 -17 -15 -23 -15 -6 0
-2 7 9 15 25 19 30 19 14 0z m-172 -66 c-2 -6 3 -14 11 -17 9 -3 11 0 6 9 -5
8 1 6 13 -5 33 -28 16 -39 -23 -13 -22 14 -30 24 -22 29 16 10 17 10 15 -3z
m82 -71 c0 -6 -6 -5 -15 2 -8 7 -15 14 -15 16 0 2 7 1 15 -2 8 -4 15 -11 15
-16z m40 8 c0 -2 -8 -10 -17 -17 -16 -13 -17 -12 -4 4 13 16 21 21 21 13z
m765 -6 c-3 -5 -12 -10 -18 -10 -7 0 -6 4 3 10 19 12 23 12 15 0z m1472 -12
c-3 -8 -6 -5 -6 6 -1 11 2 17 5 13 3 -3 4 -12 1 -19z m-2227 -2 c0 -2 -8 -10
-17 -17 -16 -13 -17 -12 -4 4 13 16 21 21 21 13z m63 -77 c-8 -8 -13 -7 -18 2
-5 8 -4 10 3 5 7 -4 12 -2 12 5 0 7 3 9 7 6 4 -4 2 -12 -4 -18z m2142 -39 c-9
-41 -17 -33 -9 9 4 17 9 30 11 27 3 -2 2 -19 -2 -36z m-3234 16 c-6 -7 -18
-31 -26 -52 -12 -31 -14 -33 -9 -9 5 31 30 75 40 75 4 0 1 -6 -5 -14z m1100
-6 c-13 -7 -13 -11 0 -26 8 -11 9 -15 2 -10 -7 4 -17 15 -22 24 -8 14 -5 18
12 19 16 2 18 0 8 -7z m429 -24 c0 -3 -4 -8 -10 -11 -5 -3 -10 -1 -10 4 0 6 5
11 10 11 6 0 10 -2 10 -4z m-60 -50 c0 -2 -7 -7 -16 -10 -8 -3 -12 -2 -9 4 6
10 25 14 25 6z m1629 -57 c-5 -10 -6 -24 -3 -32 3 -8 2 -17 -3 -20 -5 -3 -8
12 -8 32 0 23 4 38 12 38 8 0 9 -6 2 -18z m71 -24 c-7 -9 -15 -13 -18 -10 -3
2 1 11 8 20 7 9 15 13 18 10 3 -2 -1 -11 -8 -20z m-1782 -5 c7 -11 11 -20 9
-20 -2 0 -12 9 -22 20 -10 11 -14 20 -9 20 5 0 15 -9 22 -20z m1756 -40 c-6
-6 -15 -5 -24 1 -13 9 -12 10 3 5 9 -3 17 0 17 6 0 6 3 8 7 5 4 -4 2 -12 -3
-17z m-1639 -70 c16 -17 16 -20 3 -15 -9 4 -19 13 -22 21 -7 19 -2 18 19 -6z
m1543 -17 c-6 -7 -12 -13 -13 -13 -2 0 -5 6 -8 13 -3 7 3 13 14 13 13 0 15 -3
7 -13z m-1463 -63 c16 -17 16 -20 3 -15 -9 4 -19 13 -22 21 -7 19 -2 18 19 -6z
m-1658 -42 c-3 -7 -5 -2 -5 12 0 14 2 19 5 13 2 -7 2 -19 0 -25z m1380 -10
c-3 -8 -6 -5 -6 6 -1 11 2 17 5 13 3 -3 4 -12 1 -19z m357 -16 c2 -4 -4 -8
-14 -8 -10 0 -16 4 -14 8 3 4 9 8 14 8 5 0 11 -4 14 -8z m-1715 -52 c1 -13 0
-13 -9 0 -5 8 -9 24 -9 35 l0 20 9 -20 c5 -11 9 -27 9 -35z m2926 25 c-22 -13
-47 -24 -55 -24 -10 0 -8 3 5 9 11 5 14 9 7 9 -7 1 -10 6 -6 12 5 8 9 8 14 -1
6 -10 13 -9 31 4 13 9 28 16 34 16 5 0 -8 -11 -30 -25z m-1123 -26 c17 -9 18
-13 7 -20 -8 -5 -18 -9 -24 -9 -5 0 -4 4 4 9 9 6 10 10 2 16 -7 4 -20 1 -29
-7 -15 -12 -16 -11 -3 5 16 20 16 20 43 6z m1038 -9 c0 -5 -2 -10 -4 -10 -3 0
-8 5 -11 10 -3 6 -1 10 4 10 6 0 11 -4 11 -10z m-46 -24 c-10 -8 -21 -12 -23
-10 -3 2 4 11 15 18 10 8 21 12 23 10 3 -2 -4 -11 -15 -18z m-2772 -41 c9 -20
9 -20 -6 -1 -9 11 -16 27 -15 35 0 14 1 14 6 1 3 -8 10 -24 15 -35z m1393 35
c3 -5 1 -10 -4 -10 -6 0 -11 5 -11 10 0 6 2 10 4 10 3 0 8 -4 11 -10z m1345
-9 c0 -5 -11 -11 -25 -13 -14 -3 -25 -3 -25 -1 0 3 34 19 48 22 1 1 2 -3 2 -8z
m-800 -33 c0 -3 -16 -1 -35 5 -19 6 -35 13 -35 17 0 4 16 2 35 -4 19 -6 35
-14 35 -18z m107 6 c-3 -3 -12 -4 -19 -1 -8 3 -5 6 6 6 11 1 17 -2 13 -5z
m-2023 -40 c3 -8 2 -12 -4 -9 -6 3 -10 10 -10 16 0 14 7 11 14 -7z m9 -39 c-3
-9 -8 -14 -10 -11 -3 3 -2 9 2 15 9 16 15 13 8 -4z m35 -50 c-3 -3 -9 2 -12
12 -6 14 -5 15 5 6 7 -7 10 -15 7 -18z m3 -38 c-10 -9 -11 -8 -5 6 3 10 9 15
12 12 3 -3 0 -11 -7 -18z m1790 -40 c-10 -9 -11 -8 -5 6 3 10 9 15 12 12 3 -3
0 -11 -7 -18z m-1784 -9 c-3 -8 -6 -5 -6 6 -1 11 2 17 5 13 3 -3 4 -12 1 -19z
m43 -3 c14 -19 14 -19 -2 -6 -10 7 -18 18 -18 24 0 6 1 8 3 6 1 -2 9 -13 17
-24z m1327 -37 c-3 -7 -5 -2 -5 12 0 14 2 19 5 13 2 -7 2 -19 0 -25z m-1266
-25 c13 -16 12 -17 -3 -4 -10 7 -18 15 -18 17 0 8 8 3 21 -13z m1612 -40 c-23
-37 -28 -42 -18 -18 4 11 8 26 8 33 0 6 6 12 14 12 10 0 10 -6 -4 -27z m-326
-30 c-3 -10 -5 -4 -5 12 0 17 2 24 5 18 2 -7 2 -21 0 -30z m-1254 11 c-7 -20
-29 -23 -29 -5 0 9 8 17 17 17 9 0 15 -6 12 -12z m2 -33 c3 -5 2 -12 -3 -15
-5 -3 -9 1 -9 9 0 17 3 19 12 6z m55 -14 c0 -8 -3 -8 -9 2 -7 10 -12 8 -25
-10 -9 -13 -16 -19 -16 -15 0 5 7 18 16 27 17 19 34 17 34 -4z m1437 -39 c-3
-8 -6 -5 -6 6 -1 11 2 17 5 13 3 -3 4 -12 1 -19z m-200 -10 c-3 -8 -6 -5 -6 6
-1 11 2 17 5 13 3 -3 4 -12 1 -19z m121 -20 c-2 -7 5 -12 16 -11 13 1 15 -2 7
-10 -12 -12 -44 9 -35 24 8 13 14 11 12 -3z m-1294 -23 c11 -8 16 -15 10 -15
-5 0 -18 7 -28 15 -11 8 -16 15 -10 15 5 0 18 -7 28 -15z m71 -45 c3 -6 -1 -7
-9 -4 -18 7 -21 14 -7 14 6 0 13 -4 16 -10z m77 -45 c-3 -5 -7 -4 -10 3 -2 7
-11 12 -20 12 -14 0 -14 2 -3 9 16 10 42 -8 33 -24z m1045 3 c-3 -8 -6 -5 -6
6 -1 11 2 17 5 13 3 -3 4 -12 1 -19z m-13 -14 c3 -8 2 -12 -4 -9 -6 3 -10 10
-10 16 0 14 7 11 14 -7z m-915 -41 c2 -2 0 -3 -6 -3 -6 0 -21 9 -34 21 l-24
20 30 -17 c17 -10 32 -19 34 -21z m826 -63 c-9 -14 19 -12 33 2 9 9 9 5 0 -15
-16 -33 -56 -53 -72 -36 -8 9 -7 11 6 6 9 -3 24 1 35 9 17 14 17 15 -4 9 -12
-3 -24 -1 -28 4 -3 7 0 8 10 5 9 -4 15 -3 14 2 -2 14 0 24 7 24 3 0 2 -4 -1
-10z"/>
<path d="M170 5436 c-41 -7 -96 -19 -121 -25 l-46 -13 -2 -59 c-1 -32 2 -59 7
-59 5 0 44 10 88 22 107 29 375 32 474 5 217 -60 378 -156 500 -299 38 -45 67
-84 65 -86 -2 -2 4 -13 14 -23 18 -19 19 -19 64 7 26 14 47 30 47 35 0 6 -4 8
-9 5 -5 -3 -8 2 -7 12 0 9 -4 16 -11 15 -7 -2 -10 4 -7 12 4 10 0 15 -12 16
-11 0 -13 3 -7 6 17 6 -27 65 -44 59 -6 -3 -10 0 -8 7 3 7 -10 29 -29 49 -26
29 -36 34 -46 25 -10 -9 -11 -9 -5 1 8 14 -40 72 -59 72 -6 -1 -1 -9 11 -19
19 -16 20 -20 7 -25 -8 -3 -13 -2 -10 3 3 5 -1 14 -9 21 -8 7 -13 16 -10 20 7
11 -22 33 -35 25 -6 -4 -9 -3 -8 2 2 4 -1 9 -5 10 -5 1 -14 8 -20 17 -17 21
-181 101 -248 120 -31 9 -64 13 -74 10 -12 -5 -16 -4 -12 3 19 30 -302 51
-433 29z m587 -82 c-3 -3 -12 -4 -19 -1 -8 3 -5 6 6 6 11 1 17 -2 13 -5z m88
-44 c-3 -5 1 -10 10 -10 9 0 13 -4 10 -10 -3 -5 -2 -10 4 -10 5 0 11 6 14 13
3 6 4 2 4 -9 -1 -15 -6 -20 -16 -16 -10 4 -12 1 -6 -8 6 -9 4 -11 -4 -6 -7 5
-10 10 -7 13 3 4 -3 14 -15 24 -14 12 -16 18 -7 22 19 8 20 8 13 -3z m142
-102 c-3 -8 -6 -5 -6 6 -1 11 2 17 5 13 3 -3 4 -12 1 -19z m-37 -10 c0 -6 -6
-5 -15 2 -8 7 -15 14 -15 16 0 2 7 1 15 -2 8 -4 15 -11 15 -16z m70 -69 c0 -5
-11 1 -25 13 -14 12 -25 23 -25 25 0 2 11 -4 25 -13 14 -9 25 -20 25 -25z m21
-12 c-10 -9 -11 -8 -5 6 3 10 9 15 12 12 3 -3 0 -11 -7 -18z m80 -4 l24 -28
-27 24 c-27 23 -39 18 -18 -7 5 -7 3 -6 -6 2 -9 8 -13 19 -10 25 9 15 9 15 37
-16z m-2 -103 c0 -10 -3 -8 -9 5 -12 27 -12 43 0 25 5 -8 9 -22 9 -30z m71 20
c0 -5 -5 -10 -11 -10 -5 0 -7 5 -4 10 3 6 8 10 11 10 2 0 4 -4 4 -10z m-46
-56 c3 -8 2 -12 -4 -9 -6 3 -10 10 -10 16 0 14 7 11 14 -7z m60 8 c3 -5 -1 -9
-9 -9 -8 0 -12 4 -9 9 3 4 7 8 9 8 2 0 6 -4 9 -8z m16 -57 c0 -2 -10 -10 -22
-16 -21 -11 -22 -11 -9 4 13 16 31 23 31 12z"/>
<path d="M5590 5023 c-8 -3 -35 -14 -59 -24 -42 -18 -43 -20 -25 -35 18 -14
18 -15 -3 -4 -24 11 -69 -3 -59 -18 3 -5 0 -14 -6 -22 -8 -12 -9 -12 -4 3 9
28 -7 20 -52 -25 -88 -90 -161 -205 -146 -231 4 -6 3 -9 -1 -4 -23 20 -74
-174 -82 -313 -6 -114 10 -235 29 -209 7 10 8 6 4 -13 -7 -32 2 -60 17 -51 6
3 7 1 3 -6 -18 -29 110 -145 221 -200 62 -31 169 -71 190 -71 10 0 13 124 13
615 0 641 1 623 -40 608z m-40 -49 c0 -2 -7 -4 -15 -4 -8 0 -15 4 -15 10 0 5
7 7 15 4 8 -4 15 -8 15 -10z m-137 -81 c-26 -10 -55 -43 -49 -58 3 -9 2 -13
-4 -10 -19 11 -10 33 22 59 18 14 35 22 38 19 3 -3 0 -8 -7 -10z m32 -42 c-6
-5 -25 10 -25 20 0 5 6 4 14 -3 8 -7 12 -15 11 -17z m-149 -79 c-17 -16 -18
-16 -5 5 7 12 15 20 18 17 3 -2 -3 -12 -13 -22z m-11 -43 c-10 -15 -25 -10
-19 6 4 8 10 12 15 9 5 -3 7 -10 4 -15z m-51 -105 c3 -8 2 -12 -4 -9 -6 3 -10
10 -10 16 0 14 7 11 14 -7z m-24 -84 c0 -5 -4 -10 -10 -10 -5 0 -10 5 -10 10
0 6 5 10 10 10 6 0 10 -4 10 -10z m1 -97 c-12 -20 -14 -14 -5 12 4 9 9 14 11
11 3 -2 0 -13 -6 -23z m-34 -265 c-3 -8 -6 -5 -6 6 -1 11 2 17 5 13 3 -3 4
-12 1 -19z m326 -31 c3 -7 -3 -13 -14 -13 -13 0 -15 3 -7 13 6 7 12 13 13 13
2 0 5 -6 8 -13z m35 -31 c-7 -8 -15 -12 -17 -11 -5 6 10 25 20 25 5 0 4 -6 -3
-14z m-336 -18 c-7 -7 -12 -8 -12 -2 0 14 12 26 19 19 2 -3 -1 -11 -7 -17z
m374 -17 c0 -11 -5 -17 -13 -14 -10 4 -11 9 -2 19 15 18 15 18 15 -5z m-330
-53 c0 -10 -1 -18 -3 -18 -1 0 -7 8 -12 18 -7 13 -6 19 2 19 7 0 13 -9 13 -19z
m64 16 c0 -8 -19 -13 -24 -6 -3 5 1 9 9 9 8 0 15 -2 15 -3z m173 -11 c-3 -7
-6 -13 -8 -13 -2 0 -5 6 -8 13 -3 8 1 14 8 14 7 0 11 -6 8 -14z m-179 -25 c-3
-4 -12 -4 -22 -1 -15 6 -15 5 -3 -10 7 -9 17 -14 22 -11 5 3 8 0 7 -8 -2 -7 3
-12 10 -10 8 1 11 -2 6 -9 -4 -7 0 -9 14 -5 11 4 23 3 25 -2 13 -20 -44 -4
-72 21 -37 33 -39 47 -7 45 14 -1 22 -6 20 -10z m101 -48 c-3 -5 -12 -10 -18
-10 -7 0 -6 4 3 10 19 12 23 12 15 0z m49 -49 c-10 -17 -22 -31 -26 -31 -4 0
3 15 15 34 27 41 36 39 11 -3z m90 -70 c3 -4 -6 -6 -19 -3 -14 2 -25 6 -25 8
0 8 39 4 44 -5z"/>
<path d="M600 3992 c-167 -12 -343 -88 -334 -145 1 -9 -5 -22 -14 -29 -12 -10
-14 -10 -8 0 9 14 1 15 -23 3 -13 -7 -18 -6 -18 4 0 7 7 11 15 7 11 -4 13 -1
7 8 -6 10 -4 12 9 7 9 -4 14 -3 11 2 -3 5 5 17 17 25 12 9 17 16 11 16 -13 0
-98 -66 -126 -98 -12 -12 -16 -26 -11 -34 6 -10 5 -11 -8 -1 -13 11 -21 6 -54
-33 -21 -26 -43 -55 -48 -65 -5 -11 -13 -19 -18 -19 -16 0 -8 -39 9 -43 16 -4
16 -5 -1 -6 -16 -1 -17 -3 -5 -18 10 -12 10 -15 1 -9 -10 6 -12 -11 -11 -76 1
-67 4 -78 12 -58 6 14 21 42 35 62 13 20 21 42 17 48 -3 6 -1 9 7 8 7 -2 12 5
12 15 -1 9 2 17 7 17 12 0 78 72 79 85 0 6 10 15 22 20 12 6 24 17 26 25 4 12
3 13 -10 2 -13 -10 -17 -10 -21 2 -4 10 -1 13 8 10 7 -3 19 4 25 16 6 12 14
19 17 16 3 -3 0 -12 -7 -21 -21 -26 -1 -17 53 24 62 47 117 75 175 90 23 7 41
15 38 19 -9 15 238 13 315 -2 43 -8 88 -12 100 -9 16 3 20 2 11 -4 -9 -7 -1
-13 28 -22 22 -6 45 -9 50 -6 6 3 10 3 10 -2 0 -13 118 -55 131 -47 7 4 9 3 6
-3 -4 -6 8 -16 26 -23 17 -6 40 -16 49 -21 41 -21 64 -1 36 31 -11 12 -10 12
4 1 15 -11 19 -9 31 21 l14 33 -41 22 c-45 24 -71 29 -60 11 4 -7 3 -8 -5 -4
-6 4 -9 12 -6 17 4 5 1 9 -5 9 -6 0 -32 10 -58 21 -25 12 -56 22 -69 23 -13 0
-23 4 -23 7 0 12 -195 58 -280 67 -85 9 -93 9 -160 4z m187 -18 c-3 -3 -12 -4
-19 -1 -8 3 -5 6 6 6 11 1 17 -2 13 -5z m140 -30 c-3 -3 -12 -4 -19 -1 -8 3
-5 6 6 6 11 1 17 -2 13 -5z m-534 -14 c-27 -11 -31 -25 -5 -16 14 5 13 3 -3
-9 -16 -13 -17 -17 -6 -24 11 -7 9 -12 -10 -22 -21 -11 -23 -11 -11 3 10 13
10 17 0 21 -10 4 -10 8 2 16 13 9 13 11 1 11 -11 0 -9 4 5 15 10 8 26 14 34
14 8 0 5 -4 -7 -9z m604 -16 c-3 -3 -12 -4 -19 -1 -8 3 -5 6 6 6 11 1 17 -2
13 -5z m88 -22 c-3 -3 -11 0 -18 7 -9 10 -8 11 6 5 10 -3 15 -9 12 -12z m-175
-22 c-8 -5 -22 -9 -30 -9 -10 0 -8 3 5 9 27 12 43 12 25 0z m-465 -10 c-3 -5
-14 -10 -23 -10 -15 0 -15 2 -2 10 20 13 33 13 25 0z m-55 -17 c0 -1 -9 -7
-19 -12 -13 -8 -22 -7 -29 2 -8 9 -3 12 19 12 16 0 29 -1 29 -2z m590 -3 c18
-12 2 -12 -25 0 -13 6 -15 9 -5 9 8 0 22 -4 30 -9z m-665 -40 c-3 -5 -16 -15
-28 -21 l-22 -12 20 21 c21 22 41 30 30 12z m965 -23 c0 -6 -7 -2 -15 9 -10
13 -14 15 -15 5 0 -8 -3 -12 -6 -8 -3 3 -3 11 1 17 8 13 35 -5 35 -23z m-1203
-83 c-3 -4 -2 -16 4 -28 10 -20 10 -20 -5 -2 -19 24 -20 36 -4 36 6 0 8 -3 5
-6z m43 2 c0 -3 -4 -8 -10 -11 -5 -3 -10 -1 -10 4 0 6 5 11 10 11 6 0 10 -2
10 -4z m-79 -39 c-10 -9 -11 -8 -5 6 3 10 9 15 12 12 3 -3 0 -11 -7 -18z m104
-6 c-3 -6 -11 -11 -16 -11 -5 0 -4 6 3 14 14 16 24 13 13 -3z m-96 -109 c6
-12 6 -23 0 -33 -9 -12 -10 -12 -6 1 2 8 0 23 -5 33 -5 9 -6 17 -4 17 3 0 10
-8 15 -18z m-26 -67 c-3 -9 -8 -14 -10 -11 -3 3 -2 9 2 15 9 16 15 13 8 -4z"/>
<path d="M3585 3824 c-70 -37 -120 -151 -138 -317 -19 -176 12 -296 117 -460
20 -32 41 -55 46 -52 6 3 7 0 5 -8 -8 -20 98 -125 186 -183 109 -73 218 -116
304 -121 98 -6 100 -4 80 103 -9 49 -23 134 -32 190 l-16 100 37 49 c97 126
129 272 81 366 -35 66 -127 117 -191 105 -28 -6 -34 -4 -34 11 0 10 -13 40
-28 68 -19 35 -40 56 -73 75 -26 14 -69 39 -95 55 -43 26 -59 30 -134 32 -62
2 -93 -2 -115 -13z"/>
<path d="M1603 3413 c-23 -110 7 -244 71 -319 l34 -40 -75 -39 c-53 -27 -102
-64 -162 -122 -99 -97 -102 -85 34 -140 44 -18 70 -32 58 -33 -17 0 -25 -9
-32 -37 -15 -52 -14 -176 0 -167 7 4 9 0 5 -14 -8 -25 34 -118 46 -99 5 8 8 5
8 -9 0 -11 16 -39 36 -62 37 -44 58 -54 47 -24 -7 18 -5 17 17 -12 13 -18 13
-19 0 -11 -13 8 -13 7 -1 -8 11 -13 17 -15 28 -6 11 9 12 9 7 -4 -4 -12 10
-23 59 -46 36 -17 85 -35 108 -40 64 -15 188 -13 270 4 53 11 75 12 85 4 24
-20 96 -153 126 -234 47 -128 61 -207 61 -350 0 -268 -82 -486 -242 -645 -75
-75 -85 -92 -67 -120 8 -12 8 -13 -4 -3 -18 16 -34 17 -24 1 4 -7 3 -8 -5 -4
-6 4 -9 12 -6 17 10 14 -5 11 -40 -11 -84 -52 -359 -74 -570 -46 -159 21 -169
21 -162 -4 3 -11 1 -20 -4 -20 -5 0 -9 -15 -9 -33 0 -24 5 -33 18 -34 9 -1 55
-9 102 -18 127 -25 402 -25 503 -1 62 14 77 21 72 34 -4 12 -3 12 8 3 11 -8
29 -4 78 18 35 17 76 38 90 48 53 36 148 126 143 134 -8 13 6 49 19 49 8 0 8
-3 -1 -12 -21 -21 -13 -32 8 -13 13 12 18 26 14 39 -4 15 -3 17 4 8 7 -10 16
-2 36 33 24 39 26 49 14 63 -12 15 -11 16 4 4 18 -14 26 -6 48 53 8 20 7 24
-3 19 -6 -4 -4 2 6 13 25 29 63 150 77 250 16 109 8 335 -15 436 -12 53 -21
74 -27 65 -6 -9 -7 -6 -3 8 3 11 -2 38 -10 60 -37 91 -66 145 -75 139 -6 -3
-7 1 -4 9 3 9 -7 33 -23 55 -26 35 -31 38 -51 27 -13 -7 -19 -15 -15 -20 4 -4
-1 -4 -11 0 -17 6 -15 9 10 23 86 48 93 55 90 84 -2 15 -1 26 2 23 2 -3 13 -1
22 4 15 8 18 6 16 -14 -3 -23 -2 -24 20 -10 14 10 21 22 17 32 -4 14 -3 14 5
3 12 -17 17 -14 101 64 99 93 123 152 122 301 -1 93 -8 141 -37 242 -11 38
-20 52 -30 48 -7 -3 -13 -2 -13 2 5 28 -3 34 -16 12 -17 -30 -20 -18 -4 12 11
21 12 21 25 3 16 -22 18 -12 3 16 -5 11 -15 16 -21 13 -7 -4 -8 -3 -4 4 13 21
-67 138 -86 126 -6 -4 -8 -3 -5 3 8 13 -58 77 -72 69 -12 -8 -76 22 -67 31 3
3 17 -2 32 -11 14 -10 28 -16 30 -14 8 9 -80 59 -93 54 -8 -3 -12 -2 -8 3 3 5
-25 20 -62 32 -52 18 -90 24 -163 24 -85 -1 -101 -4 -152 -29 -55 -28 -123
-86 -101 -86 6 0 14 6 16 13 4 9 6 9 6 0 1 -6 -3 -14 -9 -18 -5 -3 -7 -12 -4
-20 4 -8 10 -13 14 -10 4 3 10 -1 13 -8 3 -8 -1 -14 -9 -14 -8 0 -14 4 -14 8
0 5 -28 41 -61 80 -58 67 -165 149 -195 149 -7 0 -17 -17 -21 -37z m515 -40
c-10 -2 -26 -2 -35 0 -10 3 -2 5 17 5 19 0 27 -2 18 -5z m-128 -27 c0 -2 -7
-7 -16 -10 -8 -3 -12 -2 -9 4 6 10 25 14 25 6z m-46 -24 c2 -4 -5 -9 -17 -9
-17 -2 -19 0 -7 7 18 12 18 12 24 2z m3 -52 c-5 -31 -13 -32 -12 -1 0 16 3 27
7 25 4 -3 6 -14 5 -24z m418 -10 c3 -6 -1 -7 -9 -4 -18 7 -21 14 -7 14 6 0 13
-4 16 -10z m135 -45 c11 -13 10 -14 -4 -9 -9 3 -16 10 -16 15 0 13 6 11 20 -6z
m-15 -25 c3 -5 1 -10 -4 -10 -6 0 -11 5 -11 10 0 6 2 10 4 10 3 0 8 -4 11 -10z
m-544 -31 c5 -8 9 -18 8 -24 0 -5 -6 1 -14 15 -17 29 -19 16 -5 -26 12 -39 28
-164 20 -159 -4 3 -10 34 -14 71 -4 37 -13 82 -21 102 -8 19 -15 36 -15 37 0
9 33 -4 41 -16z m617 -15 c-3 -14 -5 -12 -10 9 -3 19 -2 25 4 19 6 -6 8 -18 6
-28z m-11 -46 c-3 -8 -6 -5 -6 6 -1 11 2 17 5 13 3 -3 4 -12 1 -19z m-621
-183 c-9 -13 -13 -30 -10 -38 3 -8 1 -18 -5 -22 -7 -4 -9 1 -5 12 4 13 0 11
-14 -6 -11 -14 -18 -30 -15 -37 2 -7 -1 -15 -6 -19 -6 -3 -9 -10 -6 -15 3 -5
0 -12 -6 -16 -7 -4 -9 -3 -6 3 4 6 -4 11 -18 11 -14 0 -28 -4 -31 -9 -3 -5 -9
-9 -14 -9 -5 0 18 25 51 56 32 31 67 74 76 94 10 21 20 34 21 29 2 -5 -3 -21
-12 -34z m751 -37 c-3 -8 -6 -5 -6 6 -1 11 2 17 5 13 3 -3 4 -12 1 -19z m10
-50 c-3 -8 -6 -5 -6 6 -1 11 2 17 5 13 3 -3 4 -12 1 -19z m-948 -89 c-29 -11
-62 -19 -74 -20 -17 -1 -16 -2 5 -8 l25 -7 -27 -6 c-15 -3 -25 -1 -22 3 3 5
-3 9 -13 9 -29 0 6 20 37 20 14 1 41 9 60 19 19 9 41 15 48 13 8 -3 -10 -13
-39 -23z m-9 -23 c0 -3 -4 -8 -10 -11 -5 -3 -10 -1 -10 4 0 6 5 11 10 11 6 0
10 -2 10 -4z m50 -10 c0 -2 -9 -6 -20 -9 -11 -3 -18 -1 -14 4 5 9 34 13 34 5z
m213 -116 c-3 -12 -8 -19 -11 -16 -5 6 5 36 12 36 2 0 2 -9 -1 -20z m-31 -62
c-8 -8 -9 -4 -5 13 4 13 8 18 11 10 2 -7 -1 -18 -6 -23z m683 -28 c4 0 5 6 2
13 -3 8 1 14 8 14 10 0 11 -5 4 -18 -12 -24 -29 -33 -29 -17 0 10 -2 10 -9 -1
-7 -10 -9 -6 -8 13 2 22 4 24 13 11 6 -8 15 -15 19 -15z m-475 -37 c0 -7 -58
36 -66 49 -4 7 9 -1 29 -16 20 -16 37 -30 37 -33z m440 -18 c-13 -14 -26 -23
-28 -20 -4 4 38 44 47 45 3 0 -6 -11 -19 -25z m-45 -5 c-3 -5 -12 -10 -18 -10
-7 0 -6 4 3 10 19 12 23 12 15 0z m-930 -90 c16 -16 24 -30 19 -30 -6 0 -20
14 -32 30 -13 17 -21 30 -19 30 2 0 16 -13 32 -30z m649 14 c5 -14 4 -15 -9
-4 -17 14 -19 20 -6 20 5 0 12 -7 15 -16z m63 -9 c5 -4 2 -4 -6 0 -11 6 -13 4
-6 -11 4 -10 9 -28 10 -39 2 -15 9 -19 26 -18 21 2 22 2 6 -8 -20 -12 -51 6
-41 23 4 5 -3 22 -14 37 -19 26 -19 27 -1 26 10 -1 22 -5 26 -10z m-573 -108
c-8 -4 -22 -3 -31 3 -15 9 -14 10 7 4 l25 -7 -20 23 -20 24 27 -20 c20 -15 23
-21 12 -27z m592 -39 c4 -6 3 -8 -4 -4 -16 10 -24 -11 -12 -34 6 -11 8 -20 6
-20 -3 0 -10 9 -16 21 -9 15 -8 24 1 35 14 17 16 17 25 2z m44 -103 c5 3 11 1
14 -4 4 -5 -2 -8 -11 -7 -9 2 -18 8 -19 15 -1 6 0 7 3 1 2 -5 9 -8 13 -5z m21
-48 c-10 -9 -11 -8 -5 6 3 10 9 15 12 12 3 -3 0 -11 -7 -18z m86 -699 c-3 -8
-6 -5 -6 6 -1 11 2 17 5 13 3 -3 4 -12 1 -19z m-48 -126 c-6 -18 -14 -32 -19
-32 -4 0 0 16 8 35 19 42 26 40 11 -3z m-125 -180 c3 -5 -1 -9 -9 -9 -8 0 -12
4 -9 9 3 4 7 8 9 8 2 0 6 -4 9 -8z m41 -3 c11 -16 1 -19 -13 -3 -7 8 -8 14 -3
14 5 0 13 -5 16 -11z m-10 -29 c3 -5 1 -10 -4 -10 -6 0 -11 5 -11 10 0 6 2 10
4 10 3 0 8 -4 11 -10z m-95 -35 c-7 -8 -18 -15 -24 -15 -6 0 -2 7 8 15 25 19
32 19 16 0z m50 11 c0 -3 -4 -8 -10 -11 -5 -3 -10 -1 -10 4 0 6 5 11 10 11 6
0 10 -2 10 -4z m-136 -74 c-5 -4 -10 -23 -9 -43 1 -28 -2 -36 -13 -32 -10 4
-11 8 -2 13 15 9 -2 22 -22 17 -7 -2 -10 -2 -5 0 4 3 5 9 2 14 -4 5 2 6 12 2
10 -3 15 -3 11 2 -9 10 10 35 26 35 7 0 8 -3 0 -8z m88 -11 c-5 -14 -4 -14 14
-1 18 14 18 14 5 -3 -13 -17 -16 -17 -26 -3 -7 9 -16 12 -20 8 -5 -4 -5 -2 -2
4 10 17 36 13 29 -5z m-24 -28 c-10 -2 -18 -9 -18 -14 0 -10 -59 -69 -70 -69
-3 0 12 20 34 45 23 24 48 44 56 44 11 -1 10 -3 -2 -6z m-108 -95 c0 -6 -6 -5
-15 2 -8 7 -15 14 -15 16 0 2 7 1 15 -2 8 -4 15 -11 15 -16z m-26 -18 c-5 -4
-20 -11 -34 -14 l-25 -7 23 13 c18 11 20 16 10 27 -11 11 -9 11 11 1 13 -6 19
-15 15 -20z m-237 4 c-3 -3 -12 -4 -19 -1 -8 3 -5 6 6 6 11 1 17 -2 13 -5z
m163 -34 c-8 -5 -19 -10 -25 -10 -5 0 -3 5 5 10 8 5 20 10 25 10 6 0 3 -5 -5
-10z m-153 -46 c-3 -3 -12 -4 -19 -1 -8 3 -5 6 6 6 11 1 17 -2 13 -5z m-44
-11 c-7 -2 -19 -2 -25 0 -7 3 -2 5 12 5 14 0 19 -2 13 -5z"/>
<path d="M1853 2823 c4 -3 -1 -12 -11 -20 -15 -13 -15 -13 6 -3 23 11 30 30
10 30 -6 0 -8 -3 -5 -7z"/>
<path d="M5608 2679 c-10 -5 -15 -17 -12 -27 4 -12 3 -13 -3 -4 -8 10 -25 4
-79 -28 -142 -83 -362 -145 -499 -141 -42 2 -244 35 -281 46 -17 5 -24 0 -38
-30 -10 -20 -15 -39 -12 -42 2 -3 12 11 20 31 8 20 17 36 20 36 10 0 -17 -55
-36 -72 -27 -24 2 -37 147 -63 239 -44 514 6 732 132 l61 36 0 69 c0 37 -1 68
-2 68 0 0 -9 -5 -18 -11z m-33 -49 c-3 -5 -12 -10 -18 -10 -7 0 -6 4 3 10 19
12 23 12 15 0z m-10 -30 c-3 -5 -12 -10 -18 -10 -7 0 -6 4 3 10 19 12 23 12
15 0z m-40 -10 c3 -5 1 -10 -4 -10 -6 0 -11 5 -11 10 0 6 2 10 4 10 3 0 8 -4
11 -10z m-28 -16 c-3 -3 -12 -4 -19 -1 -8 3 -5 6 6 6 11 1 17 -2 13 -5z m108
-14 c-3 -5 -12 -10 -18 -10 -7 0 -6 4 3 10 19 12 23 12 15 0z m-281 -49 c4 -5
-3 -7 -14 -4 -23 6 -26 13 -6 13 8 0 17 -4 20 -9z m187 -12 c-24 -11 -46 -17
-49 -14 -3 2 6 8 19 13 13 5 31 12 39 15 37 14 31 4 -9 -14z m-264 -5 c-3 -3
-12 -4 -19 -1 -8 3 -5 6 6 6 11 1 17 -2 13 -5z m-510 -36 c-3 -8 -6 -5 -6 6
-1 11 2 17 5 13 3 -3 4 -12 1 -19z m393 12 c-8 -5 -28 -9 -45 -9 -30 2 -30 2
5 9 51 11 57 11 40 0z m93 3 c-7 -2 -19 -2 -25 0 -7 3 -2 5 12 5 14 0 19 -2
13 -5z m189 -13 c-18 -11 -36 -20 -40 -20 -14 1 43 40 58 40 8 0 0 -9 -18 -20z
m-682 -24 c0 -11 -19 -15 -25 -6 -3 5 1 10 9 10 9 0 16 -2 16 -4z m63 -3 c-7
-2 -19 -2 -25 0 -7 3 -2 5 12 5 14 0 19 -2 13 -5z m65 -10 c-10 -2 -26 -2 -35
0 -10 3 -2 5 17 5 19 0 27 -2 18 -5z m402 -13 c-8 -5 -31 -9 -50 -8 l-35 1 40
7 c59 11 61 11 45 0z m-283 -6 c-3 -3 -12 -4 -19 -1 -8 3 -5 6 6 6 11 1 17 -2
13 -5z m116 -11 c-7 -2 -19 -2 -25 0 -7 3 -2 5 12 5 14 0 19 -2 13 -5z m-160
-10 c-7 -2 -19 -2 -25 0 -7 3 -2 5 12 5 14 0 19 -2 13 -5z"/>
<path d="M2 2384 c0 -106 1 -109 28 -136 16 -14 26 -29 24 -31 -3 -3 14 -21
37 -40 l41 -36 34 40 c19 23 34 45 34 49 0 17 -18 20 -30 5 -7 -8 -18 -15 -24
-15 -6 0 -3 5 7 11 21 13 22 26 0 47 -24 24 -123 159 -139 190 -11 23 -13 14
-12 -84z m139 -121 c13 -16 12 -17 -3 -4 -10 7 -18 15 -18 17 0 8 8 3 21 -13z
m-86 -3 c3 -5 1 -10 -4 -10 -6 0 -11 5 -11 10 0 6 2 10 4 10 3 0 8 -4 11 -10z
m44 -65 c16 -20 16 -20 -6 -1 -13 11 -23 26 -22 35 0 14 1 14 6 1 3 -8 13 -24
22 -35z m81 15 c-6 -11 -13 -20 -16 -20 -2 0 0 9 6 20 6 11 13 20 16 20 2 0 0
-9 -6 -20z m-45 -40 c3 -5 1 -10 -4 -10 -6 0 -11 5 -11 10 0 6 2 10 4 10 3 0
8 -4 11 -10z"/>
<path d="M2417 2315 c-4 -8 -2 -17 3 -20 6 -4 10 -4 10 -1 0 2 3 11 6 20 3 9
2 16 -4 16 -5 0 -12 -7 -15 -15z"/>
<path d="M3555 2174 c-105 -21 -139 -30 -197 -51 -40 -15 -65 -30 -61 -36 3
-6 1 -7 -5 -3 -25 15 -202 -118 -202 -151 0 -9 -3 -13 -6 -10 -10 10 -46 -41
-48 -67 0 -13 -4 -22 -8 -20 -3 2 -16 -21 -28 -52 -23 -63 -40 -222 -23 -211
7 5 9 0 6 -12 -5 -20 25 -96 53 -134 11 -15 15 -16 11 -4 -4 9 -2 17 3 17 6 0
10 -11 10 -24 0 -16 13 -35 35 -54 l35 -29 -45 -68 c-25 -37 -42 -71 -38 -76
32 -30 286 -61 353 -42 l35 10 0 -91 c0 -79 4 -99 28 -150 31 -66 92 -146 111
-146 26 0 81 138 92 229 6 58 7 60 28 49 11 -6 53 -11 93 -11 61 0 82 5 135
31 35 18 74 41 87 52 20 18 22 22 10 38 -12 15 -12 16 2 5 13 -11 22 -7 52 24
34 34 50 62 27 48 -16 -10 -11 1 7 16 14 12 16 12 9 -1 -4 -8 0 -6 9 5 25 30
70 133 83 190 22 101 25 153 8 186 -9 18 -16 37 -15 43 0 6 4 2 9 -9 8 -18 9
-19 9 -1 2 37 -30 137 -49 156 -11 11 -20 26 -20 33 1 6 7 1 15 -13 17 -30 19
-24 4 18 -6 18 -16 29 -22 25 -6 -3 -7 -1 -3 5 4 6 -2 29 -14 51 -15 30 -25
39 -40 36 -12 -2 -18 0 -15 6 4 5 11 6 17 3 6 -4 8 -1 6 7 -3 8 -10 13 -16 12
-7 -2 -9 4 -5 14 5 13 2 15 -11 10 -11 -4 -15 -3 -10 4 3 6 -6 24 -21 39 -24
25 -31 27 -49 18 -19 -10 -20 -9 -8 5 11 13 10 18 -12 32 -48 32 -172 55 -285
54 -58 -1 -115 -3 -126 -5z m70 -14 c-28 -7 -29 -8 -5 -10 14 -1 19 -4 12 -7
-18 -7 -44 5 -37 17 3 5 18 9 33 9 l27 -1 -30 -8z m98 3 c-7 -2 -21 -2 -30 0
-10 3 -4 5 12 5 17 0 24 -2 18 -5z m70 -10 c-7 -2 -19 -2 -25 0 -7 3 -2 5 12
5 14 0 19 -2 13 -5z m-308 -13 c3 -6 -1 -7 -9 -4 -18 7 -21 14 -7 14 6 0 13
-4 16 -10z m442 -6 c-3 -3 -12 -4 -19 -1 -8 3 -5 6 6 6 11 1 17 -2 13 -5z
m-567 -31 c-8 -3 -24 -10 -35 -15 -20 -9 -20 -9 -1 6 11 9 27 16 35 15 14 0
14 -1 1 -6z m665 -33 c3 -6 -1 -7 -9 -4 -18 7 -21 14 -7 14 6 0 13 -4 16 -10z
m-835 -65 c-7 -9 -15 -13 -19 -10 -3 3 1 10 9 15 21 14 24 12 10 -5z m-37 -27
c-6 -7 -9 -24 -8 -37 2 -22 1 -23 -11 -6 -12 16 -11 21 3 37 18 20 31 25 16 6z
m978 -141 c-10 -9 -11 -8 -5 6 3 10 9 15 12 12 3 -3 0 -11 -7 -18z m-1104 -49
c-3 -7 -5 -2 -5 12 0 14 2 19 5 13 2 -7 2 -19 0 -25z m-14 -38 c-3 -11 -10
-23 -16 -27 -5 -3 -8 -2 -5 3 3 5 8 17 11 27 9 24 16 22 10 -3z m1194 -262
c-3 -8 -6 -5 -6 6 -1 11 2 17 5 13 3 -3 4 -12 1 -19z m-1173 -24 c3 -8 2 -12
-4 -9 -6 3 -10 10 -10 16 0 14 7 11 14 -7z m253 -10 c-3 -3 -12 -4 -19 -1 -8
3 -5 6 6 6 11 1 17 -2 13 -5z m10 -29 c-26 -7 -65 -22 -87 -33 -22 -11 -40
-16 -40 -12 0 3 21 16 48 28 62 27 72 30 102 30 15 0 7 -5 -23 -13z m118 5
c27 -7 27 -8 5 -8 -14 0 -36 4 -50 8 -20 6 -21 8 -5 8 11 0 34 -4 50 -8z m60
-10 c3 -5 1 -10 -4 -10 -6 0 -11 5 -11 10 0 6 2 10 4 10 3 0 8 -4 11 -10z
m-330 -19 c3 -5 0 -13 -6 -17 -7 -4 -9 -3 -5 4 3 5 0 13 -6 15 -9 4 -10 6 -1
6 6 1 14 -3 18 -8z m403 -11 c18 -11 37 -18 42 -15 6 4 7 -2 3 -11 -5 -14 -3
-16 11 -11 14 6 16 3 11 -16 -6 -21 -5 -21 8 2 12 20 15 21 20 7 4 -10 3 -15
-2 -12 -16 10 -20 -21 -5 -42 9 -13 11 -23 4 -27 -5 -3 -10 0 -10 8 0 28 -62
99 -103 118 -23 10 -35 19 -27 19 8 0 30 -9 48 -20z m-445 2 c4 9 6 9 6 1 2
-20 -16 -24 -30 -5 -13 15 -12 16 3 4 13 -10 17 -10 21 0z m1058 -38 c-5 -16
-10 -21 -10 -12 -1 18 10 51 15 45 2 -1 -1 -16 -5 -33z m-1007 4 c-3 -4 -9 -8
-15 -8 -5 0 -9 4 -9 8 0 5 7 9 15 9 8 0 12 -4 9 -9z m984 -59 c-3 -8 -7 -3
-11 10 -4 17 -3 21 5 13 5 -5 8 -16 6 -23z m-483 11 c3 -5 1 -10 -4 -10 -6 0
-11 5 -11 10 0 6 2 10 4 10 3 0 8 -4 11 -10z m385 -75 c-7 -9 -15 -13 -19 -10
-3 3 1 10 9 15 21 14 24 12 10 -5z m24 -46 c-9 -10 -22 -19 -28 -19 -6 1 -1 9
12 19 14 13 20 26 16 38 -5 17 -5 17 6 0 9 -15 8 -22 -6 -38z m-393 32 c6 9 6
1 2 -20 -4 -23 -3 -32 5 -27 6 3 14 1 18 -5 5 -8 3 -9 -6 -4 -10 6 -12 2 -8
-18 3 -14 2 -31 -2 -37 -4 -6 -10 10 -13 37 -3 26 -7 55 -10 63 -2 8 -2 11 1
6 2 -4 8 -2 13 5z m26 -23 c-3 -7 -5 -2 -5 12 0 14 2 19 5 13 2 -7 2 -19 0
-25z m243 -87 c0 -12 -29 -41 -40 -41 -5 0 1 11 13 24 26 28 27 29 27 17z m21
-14 c-10 -9 -11 -8 -5 6 3 10 9 15 12 12 3 -3 0 -11 -7 -18z m-266 -7 c-3 -5
-12 -10 -18 -10 -7 0 -6 4 3 10 19 12 23 12 15 0z m33 -30 c8 0 13 -3 9 -6
-10 -10 -48 7 -40 19 5 8 8 8 11 -1 2 -7 11 -12 20 -12z m140 -6 c2 -1 -10 -1
-25 -1 -15 0 -22 2 -15 4 6 3 9 10 5 16 -4 7 2 5 13 -3 10 -8 20 -15 22 -16z
m-71 -10 c-3 -3 -12 -4 -19 -1 -8 3 -5 6 6 6 11 1 17 -2 13 -5z"/>
<path d="M5360 2099 c-47 -10 -107 -26 -135 -35 -50 -17 -206 -91 -215 -103
-3 -4 -17 -12 -33 -19 -15 -6 -26 -17 -25 -23 2 -6 -8 -18 -22 -26 l-25 -15
25 21 c14 11 21 21 17 21 -23 0 -180 -138 -171 -151 3 -5 -2 -6 -10 -3 -18 7
-21 -7 -5 -23 8 -8 7 -13 -2 -18 -7 -5 -10 -4 -5 3 3 6 2 13 -3 16 -13 8 -94
-101 -85 -115 4 -8 3 -9 -4 -5 -28 17 -109 -201 -119 -319 -7 -84 5 -228 18
-220 5 4 6 -1 3 -9 -8 -21 25 -127 44 -144 10 -7 11 -11 5 -7 -10 5 -11 0 -2
-22 28 -75 62 -142 70 -137 5 3 6 -1 3 -9 -5 -14 59 -137 78 -148 5 -3 10 -10
11 -15 1 -5 5 -8 9 -7 4 2 4 -5 1 -14 -5 -12 -3 -14 7 -8 10 6 12 4 7 -9 -5
-14 3 -11 43 11 28 15 50 31 50 35 0 4 -14 31 -31 60 -66 115 -150 300 -170
377 -12 44 -25 81 -29 81 -3 0 -7 45 -9 99 -2 89 1 108 29 187 35 99 66 157
119 224 175 221 474 369 744 370 l87 0 0 44 c0 34 -4 46 -17 49 -17 4 -17 5 0
6 9 0 17 6 17 11 0 17 -179 10 -270 -11z m188 4 c-21 -2 -55 -2 -75 0 -21 2
-4 4 37 4 41 0 58 -2 38 -4z m-653 -250 c-22 -15 -39 -17 -30 -3 3 6 13 10 21
10 9 0 12 5 8 12 -5 7 -3 8 6 3 10 -6 9 -11 -5 -22z m-51 -54 c-12 -24 -18
-29 -24 -18 -5 7 -12 10 -16 6 -4 -3 -2 -13 5 -21 9 -10 8 -15 -2 -19 -18 -7
-16 41 3 53 8 5 17 7 21 4 4 -2 9 3 13 11 3 8 8 15 11 15 3 0 -2 -14 -11 -31z
m-129 -129 c-1 -11 -5 -23 -10 -27 -4 -5 -5 -2 -1 5 4 6 3 12 -1 12 -5 0 -15
-6 -23 -12 -8 -7 -4 -1 9 15 29 32 28 32 26 7z m35 -20 c0 -5 -5 -10 -11 -10
-5 0 -7 5 -4 10 3 6 8 10 11 10 2 0 4 -4 4 -10z m-95 -50 c-4 -6 -1 -19 7 -28
12 -15 11 -16 -4 -3 -14 11 -18 11 -18 1 0 -8 -3 -11 -6 -8 -6 7 13 48 22 48
3 0 2 -5 -1 -10z m35 -25 c0 -5 -5 -3 -10 5 -5 8 -10 20 -10 25 0 6 5 3 10 -5
5 -8 10 -19 10 -25z m-43 -57 c-3 -8 -6 -5 -6 6 -1 11 2 17 5 13 3 -3 4 -12 1
-19z m-27 -2 c0 -3 -4 -8 -10 -11 -5 -3 -10 -1 -10 4 0 6 5 11 10 11 6 0 10
-2 10 -4z m41 -19 c-10 -9 -11 -8 -5 6 3 10 9 15 12 12 3 -3 0 -11 -7 -18z
m-81 -92 c-6 -30 -8 -33 -9 -13 -1 25 8 62 14 56 2 -2 -1 -21 -5 -43z m-17
-85 c-3 -12 -8 -19 -11 -16 -5 6 5 36 12 36 2 0 2 -9 -1 -20z m44 -62 c-3 -7
-5 -2 -5 12 0 14 2 19 5 13 2 -7 2 -19 0 -25z m60 -220 c-3 -8 -6 -5 -6 6 -1
11 2 17 5 13 3 -3 4 -12 1 -19z m-69 -43 c-3 -3 -9 2 -12 12 -6 14 -5 15 5 6
7 -7 10 -15 7 -18z m93 -72 c-12 -20 -14 -14 -5 12 4 9 9 14 11 11 3 -2 0 -13
-6 -23z m-31 -83 c0 -5 -2 -10 -4 -10 -3 0 -8 5 -11 10 -3 6 -1 10 4 10 6 0
11 -4 11 -10z m70 -141 c0 -13 4 -18 12 -13 7 4 8 3 4 -4 -4 -6 1 -23 10 -37
9 -14 14 -25 11 -25 -8 0 -44 61 -52 89 -5 16 -4 21 4 17 6 -4 11 -16 11 -27z
m99 -105 c6 -5 4 -14 -4 -21 -10 -9 -15 -6 -23 12 -9 18 -8 23 4 21 8 -1 18
-6 23 -12z m38 10 c-3 -3 -12 -4 -19 -1 -8 3 -5 6 6 6 11 1 17 -2 13 -5z"/>
<path d="M942 2017 c-44 -93 -62 -172 -62 -273 0 -113 4 -119 66 -108 l49 9
-4 80 c-3 93 10 158 50 237 l28 56 -25 16 c-80 52 -69 54 -102 -17z"/>
<path d="M275 1753 c-68 -9 -198 -44 -235 -63 l-40 -20 0 -835 c0 -789 1 -835
18 -835 13 0 14 2 4 9 -11 7 -11 9 2 14 10 4 16 1 16 -7 0 -11 9 -9 39 7 22
12 37 26 34 31 -4 5 -1 6 5 2 27 -17 143 98 126 126 -4 6 -3 8 3 5 6 -4 14 0
17 9 3 8 2 13 -2 10 -4 -2 -8 8 -9 22 -1 24 0 24 10 7 9 -17 13 -13 30 35 14
41 20 93 24 201 l6 147 29 -9 c59 -17 166 -21 260 -9 95 11 306 55 316 65 18
17 -116 221 -203 310 -144 146 -327 225 -521 225 l-52 0 39 42 c88 97 129 224
129 405 0 62 -3 112 -7 112 -5 -1 -21 -4 -38 -6z m6 -1460 c-12 -20 -14 -14
-5 12 4 9 9 14 11 11 3 -2 0 -13 -6 -23z m-87 -137 c-3 -8 0 -17 6 -21 8 -5 5
-13 -9 -26 -11 -10 -24 -19 -28 -19 -4 1 2 9 15 20 12 10 18 21 13 24 -5 3
-14 -1 -21 -9 -7 -8 -17 -15 -22 -15 -5 0 3 13 19 30 32 34 34 35 27 16z"/>
<path d="M2090 870 c0 -5 5 -10 10 -10 6 0 10 5 10 10 0 6 -4 10 -10 10 -5 0
-10 -4 -10 -10z"/>
<path d="M2929 593 c0 -11 -3 -13 -6 -5 -5 13 -59 17 -66 4 -3 -4 -7 -75 -9
-159 -1 -83 -5 -149 -7 -147 -6 6 -53 -146 -53 -173 0 -13 -4 -21 -8 -18 -4 3
-16 -14 -26 -38 -10 -23 -20 -45 -22 -49 -2 -5 19 -8 46 -8 31 0 52 5 55 13 4
9 6 9 6 0 1 -7 6 -13 12 -13 5 0 7 5 4 10 -3 6 -2 10 4 10 12 0 34 67 26 80
-4 6 -1 9 6 8 18 -4 57 140 71 262 13 122 4 240 -18 240 -8 0 -14 -8 -15 -17z
m23 -28 c3 -14 1 -25 -3 -25 -5 0 -9 11 -9 25 0 14 2 25 4 25 2 0 6 -11 8 -25z
m-25 -147 c-3 -7 -5 -2 -5 12 0 14 2 19 5 13 2 -7 2 -19 0 -25z m-10 -70 c-3
-8 -6 -5 -6 6 -1 11 2 17 5 13 3 -3 4 -12 1 -19z m30 -10 c-3 -7 -5 -2 -5 12
0 14 2 19 5 13 2 -7 2 -19 0 -25z m-110 -120 c-3 -8 -6 -5 -6 6 -1 11 2 17 5
13 3 -3 4 -12 1 -19z m83 -23 c0 -5 -5 -3 -10 5 -5 8 -10 20 -10 25 0 6 5 3
10 -5 5 -8 10 -19 10 -25z m-93 -27 c-3 -8 -6 -5 -6 6 -1 11 2 17 5 13 3 -3 4
-12 1 -19z m-19 -69 c-3 -8 -7 -3 -11 10 -4 17 -3 21 5 13 5 -5 8 -16 6 -23z
m-15 -34 c-3 -9 -8 -14 -10 -11 -3 3 -2 9 2 15 9 16 15 13 8 -4z m-13 -29 c0
-3 -4 -8 -10 -11 -5 -3 -10 -1 -10 4 0 6 5 11 10 11 6 0 10 -2 10 -4z"/>
<path d="M5540 371 c-30 -10 -85 -32 -122 -49 -54 -25 -66 -35 -62 -49 5 -14
4 -15 -4 -4 -8 11 -18 8 -53 -16 -24 -17 -43 -35 -42 -41 2 -7 -4 -9 -15 -5
-9 3 -14 2 -10 -2 5 -5 -2 -13 -14 -19 -30 -15 -99 -108 -93 -124 3 -7 0 -10
-5 -7 -6 3 -10 0 -10 -9 0 -8 -3 -21 -6 -30 -5 -13 27 -15 260 -16 l266 -1 0
196 c0 222 7 208 -90 176z m-10 -25 c-14 -7 -36 -16 -50 -20 -14 -3 -7 3 15
13 45 22 73 27 35 7z m-88 -33 c-6 -2 -10 -8 -8 -11 2 -4 -8 -8 -22 -9 l-27
-1 25 14 c14 7 30 13 35 13 6 0 4 -3 -3 -6z m-111 -66 c-6 -8 -8 -16 -5 -19 3
-3 1 -9 -4 -12 -6 -3 -9 0 -8 6 2 16 15 38 23 38 3 0 0 -6 -6 -13z m-117 -95
c3 -5 -1 -9 -9 -9 -8 0 -12 4 -9 9 3 4 7 8 9 8 2 0 6 -4 9 -8z"/>
<path d="M4103 263 c-30 -4 -33 -8 -33 -37 0 -43 -25 -138 -50 -186 l-20 -40
64 0 64 0 21 62 c12 35 24 96 28 136 7 81 12 76 -74 65z"/>
<path d="M1045 135 c-49 -21 -67 -39 -59 -58 3 -9 10 -15 14 -12 4 3 11 -2 14
-11 3 -8 2 -12 -4 -9 -13 8 -13 -1 0 -26 9 -16 22 -19 75 -19 36 0 65 2 65 5
0 2 -5 15 -12 29 -9 22 -14 24 -26 13 -13 -11 -14 -9 -1 11 13 21 12 25 -7 41
-12 10 -23 25 -25 33 -4 14 -8 15 -34 3z m5 -29 c0 -3 -4 -8 -10 -11 -5 -3
-10 -1 -10 4 0 6 5 11 10 11 6 0 10 -2 10 -4z m-30 -10 c0 -2 -7 -6 -15 -10
-8 -3 -15 -1 -15 4 0 6 7 10 15 10 8 0 15 -2 15 -4z m15 -26 c3 -5 1 -10 -4
-10 -6 0 -11 5 -11 10 0 6 2 10 4 10 3 0 8 -4 11 -10z"/>
</g>
</svg>
